<svg width="14" height="14" viewBox="0 0 14 14" fill="none" xmlns="http://www.w3.org/2000/svg">
<path d="M6.99997 0.172729C5.33781 0.172798 3.72992 0.764305 2.46398 1.84141C1.19804 2.91852 0.356667 4.41093 0.0904117 6.05163C-0.175844 7.69232 0.15039 9.37422 1.01074 10.7964C1.87109 12.2185 3.20942 13.2882 4.78625 13.8139C5.13625 13.8751 5.2675 13.6651 5.2675 13.4814C5.2675 13.3151 5.25874 12.7639 5.25874 12.1776C3.49999 12.5014 3.045 11.7489 2.905 11.3552C2.74965 10.9722 2.50339 10.6329 2.1875 10.3664C1.94251 10.2352 1.59251 9.91141 2.17875 9.90267C2.4026 9.92696 2.61729 10.0049 2.80464 10.1298C2.99199 10.2546 3.14647 10.4229 3.255 10.6201C3.35073 10.7921 3.47947 10.9435 3.63383 11.0657C3.78818 11.1878 3.96512 11.2783 4.15451 11.332C4.3439 11.3856 4.54201 11.4014 4.7375 11.3783C4.93299 11.3553 5.122 11.2939 5.29372 11.1976C5.32402 10.8418 5.48262 10.5091 5.73998 10.2614C4.18249 10.0864 2.555 9.48266 2.555 6.8052C2.54516 6.10951 2.80188 5.43642 3.2725 4.92397C3.05849 4.31932 3.08353 3.65577 3.3425 3.06898C3.3425 3.06898 3.92872 2.88522 5.26748 3.78647C6.41288 3.47146 7.62206 3.47146 8.76746 3.78647C10.1062 2.87648 10.6924 3.06898 10.6924 3.06898C10.9514 3.65577 10.9765 4.31933 10.7624 4.92397C11.2345 5.43554 11.4914 6.10922 11.4799 6.8052C11.4799 9.49141 9.84369 10.0864 8.28621 10.2614C8.45326 10.4307 8.58192 10.634 8.66345 10.8575C8.74498 11.0809 8.77747 11.3193 8.75871 11.5564C8.75871 12.4927 8.74995 13.2451 8.74995 13.4814C8.74995 13.6652 8.8812 13.8839 9.2312 13.8139C10.8053 13.2839 12.1397 12.2118 12.9964 10.7889C13.8531 9.366 14.1762 7.68496 13.9081 6.04585C13.64 4.40675 12.7982 2.91627 11.5328 1.84048C10.2674 0.764681 8.66085 0.173594 6.99997 0.172729Z" fill="black"/>
</svg>
