<svg width="14" height="14" viewBox="0 0 14 14" fill="none" xmlns="http://www.w3.org/2000/svg">
<g clip-path="url(#clip0_5_353)">
<path d="M9.04167 0.583313H4.37501C3.57001 0.583313 2.91667 1.23665 2.91667 2.04165V11.9583C2.91667 12.7633 3.57001 13.4166 4.37501 13.4166H9.04167C9.84667 13.4166 10.5 12.7633 10.5 11.9583V2.04165C10.5 1.23665 9.84667 0.583313 9.04167 0.583313ZM6.70834 12.8333C6.22417 12.8333 5.83334 12.4425 5.83334 11.9583C5.83334 11.4741 6.22417 11.0833 6.70834 11.0833C7.19251 11.0833 7.58334 11.4741 7.58334 11.9583C7.58334 12.4425 7.19251 12.8333 6.70834 12.8333ZM9.33334 10.5H4.08334V2.33331H9.33334V10.5Z" fill="black"/>
</g>
<defs>
<clipPath id="clip0_5_353">
<rect width="14" height="14" fill="white"/>
</clipPath>
</defs>
</svg>
